%TF.GenerationSoftware,KiCad,Pcbnew,8.0.6*%
%TF.CreationDate,2024-10-27T16:48:45-04:00*%
%TF.ProjectId,monostable,6d6f6e6f-7374-4616-926c-652e6b696361,rev?*%
%TF.SameCoordinates,Original*%
%TF.FileFunction,Legend,Top*%
%TF.FilePolarity,Positive*%
%FSLAX46Y46*%
G04 Gerber Fmt 4.6, Leading zero omitted, Abs format (unit mm)*
G04 Created by KiCad (PCBNEW 8.0.6) date 2024-10-27 16:48:45*
%MOMM*%
%LPD*%
G01*
G04 APERTURE LIST*
%ADD10C,0.150000*%
%ADD11C,0.100000*%
%ADD12C,0.120000*%
%ADD13C,0.508000*%
%ADD14C,0.152400*%
G04 APERTURE END LIST*
D10*
X139263095Y-42054819D02*
X139263095Y-42864342D01*
X139263095Y-42864342D02*
X139310714Y-42959580D01*
X139310714Y-42959580D02*
X139358333Y-43007200D01*
X139358333Y-43007200D02*
X139453571Y-43054819D01*
X139453571Y-43054819D02*
X139644047Y-43054819D01*
X139644047Y-43054819D02*
X139739285Y-43007200D01*
X139739285Y-43007200D02*
X139786904Y-42959580D01*
X139786904Y-42959580D02*
X139834523Y-42864342D01*
X139834523Y-42864342D02*
X139834523Y-42054819D01*
X140834523Y-43054819D02*
X140263095Y-43054819D01*
X140548809Y-43054819D02*
X140548809Y-42054819D01*
X140548809Y-42054819D02*
X140453571Y-42197676D01*
X140453571Y-42197676D02*
X140358333Y-42292914D01*
X140358333Y-42292914D02*
X140263095Y-42340533D01*
X139247467Y-40448700D02*
X139390324Y-40496319D01*
X139390324Y-40496319D02*
X139628419Y-40496319D01*
X139628419Y-40496319D02*
X139723657Y-40448700D01*
X139723657Y-40448700D02*
X139771276Y-40401080D01*
X139771276Y-40401080D02*
X139818895Y-40305842D01*
X139818895Y-40305842D02*
X139818895Y-40210604D01*
X139818895Y-40210604D02*
X139771276Y-40115366D01*
X139771276Y-40115366D02*
X139723657Y-40067747D01*
X139723657Y-40067747D02*
X139628419Y-40020128D01*
X139628419Y-40020128D02*
X139437943Y-39972509D01*
X139437943Y-39972509D02*
X139342705Y-39924890D01*
X139342705Y-39924890D02*
X139295086Y-39877271D01*
X139295086Y-39877271D02*
X139247467Y-39782033D01*
X139247467Y-39782033D02*
X139247467Y-39686795D01*
X139247467Y-39686795D02*
X139295086Y-39591557D01*
X139295086Y-39591557D02*
X139342705Y-39543938D01*
X139342705Y-39543938D02*
X139437943Y-39496319D01*
X139437943Y-39496319D02*
X139676038Y-39496319D01*
X139676038Y-39496319D02*
X139818895Y-39543938D01*
X140152229Y-39496319D02*
X140390324Y-40496319D01*
X140390324Y-40496319D02*
X140580800Y-39782033D01*
X140580800Y-39782033D02*
X140771276Y-40496319D01*
X140771276Y-40496319D02*
X141009372Y-39496319D01*
X141914133Y-40496319D02*
X141342705Y-40496319D01*
X141628419Y-40496319D02*
X141628419Y-39496319D01*
X141628419Y-39496319D02*
X141533181Y-39639176D01*
X141533181Y-39639176D02*
X141437943Y-39734414D01*
X141437943Y-39734414D02*
X141342705Y-39782033D01*
X140333333Y-52134819D02*
X140000000Y-51658628D01*
X139761905Y-52134819D02*
X139761905Y-51134819D01*
X139761905Y-51134819D02*
X140142857Y-51134819D01*
X140142857Y-51134819D02*
X140238095Y-51182438D01*
X140238095Y-51182438D02*
X140285714Y-51230057D01*
X140285714Y-51230057D02*
X140333333Y-51325295D01*
X140333333Y-51325295D02*
X140333333Y-51468152D01*
X140333333Y-51468152D02*
X140285714Y-51563390D01*
X140285714Y-51563390D02*
X140238095Y-51611009D01*
X140238095Y-51611009D02*
X140142857Y-51658628D01*
X140142857Y-51658628D02*
X139761905Y-51658628D01*
X141285714Y-52134819D02*
X140714286Y-52134819D01*
X141000000Y-52134819D02*
X141000000Y-51134819D01*
X141000000Y-51134819D02*
X140904762Y-51277676D01*
X140904762Y-51277676D02*
X140809524Y-51372914D01*
X140809524Y-51372914D02*
X140714286Y-51420533D01*
D11*
X130916666Y-38951419D02*
X130916666Y-39665704D01*
X130916666Y-39665704D02*
X130869047Y-39808561D01*
X130869047Y-39808561D02*
X130773809Y-39903800D01*
X130773809Y-39903800D02*
X130630952Y-39951419D01*
X130630952Y-39951419D02*
X130535714Y-39951419D01*
X131345238Y-39046657D02*
X131392857Y-38999038D01*
X131392857Y-38999038D02*
X131488095Y-38951419D01*
X131488095Y-38951419D02*
X131726190Y-38951419D01*
X131726190Y-38951419D02*
X131821428Y-38999038D01*
X131821428Y-38999038D02*
X131869047Y-39046657D01*
X131869047Y-39046657D02*
X131916666Y-39141895D01*
X131916666Y-39141895D02*
X131916666Y-39237133D01*
X131916666Y-39237133D02*
X131869047Y-39379990D01*
X131869047Y-39379990D02*
X131297619Y-39951419D01*
X131297619Y-39951419D02*
X131916666Y-39951419D01*
X130916666Y-35917418D02*
X130916666Y-36631703D01*
X130916666Y-36631703D02*
X130869047Y-36774560D01*
X130869047Y-36774560D02*
X130773809Y-36869799D01*
X130773809Y-36869799D02*
X130630952Y-36917418D01*
X130630952Y-36917418D02*
X130535714Y-36917418D01*
X131916666Y-36917418D02*
X131345238Y-36917418D01*
X131630952Y-36917418D02*
X131630952Y-35917418D01*
X131630952Y-35917418D02*
X131535714Y-36060275D01*
X131535714Y-36060275D02*
X131440476Y-36155513D01*
X131440476Y-36155513D02*
X131345238Y-36203132D01*
D10*
X128083333Y-51009580D02*
X128035714Y-51057200D01*
X128035714Y-51057200D02*
X127892857Y-51104819D01*
X127892857Y-51104819D02*
X127797619Y-51104819D01*
X127797619Y-51104819D02*
X127654762Y-51057200D01*
X127654762Y-51057200D02*
X127559524Y-50961961D01*
X127559524Y-50961961D02*
X127511905Y-50866723D01*
X127511905Y-50866723D02*
X127464286Y-50676247D01*
X127464286Y-50676247D02*
X127464286Y-50533390D01*
X127464286Y-50533390D02*
X127511905Y-50342914D01*
X127511905Y-50342914D02*
X127559524Y-50247676D01*
X127559524Y-50247676D02*
X127654762Y-50152438D01*
X127654762Y-50152438D02*
X127797619Y-50104819D01*
X127797619Y-50104819D02*
X127892857Y-50104819D01*
X127892857Y-50104819D02*
X128035714Y-50152438D01*
X128035714Y-50152438D02*
X128083333Y-50200057D01*
X128464286Y-50200057D02*
X128511905Y-50152438D01*
X128511905Y-50152438D02*
X128607143Y-50104819D01*
X128607143Y-50104819D02*
X128845238Y-50104819D01*
X128845238Y-50104819D02*
X128940476Y-50152438D01*
X128940476Y-50152438D02*
X128988095Y-50200057D01*
X128988095Y-50200057D02*
X129035714Y-50295295D01*
X129035714Y-50295295D02*
X129035714Y-50390533D01*
X129035714Y-50390533D02*
X128988095Y-50533390D01*
X128988095Y-50533390D02*
X128416667Y-51104819D01*
X128416667Y-51104819D02*
X129035714Y-51104819D01*
X131083333Y-43759580D02*
X131035714Y-43807200D01*
X131035714Y-43807200D02*
X130892857Y-43854819D01*
X130892857Y-43854819D02*
X130797619Y-43854819D01*
X130797619Y-43854819D02*
X130654762Y-43807200D01*
X130654762Y-43807200D02*
X130559524Y-43711961D01*
X130559524Y-43711961D02*
X130511905Y-43616723D01*
X130511905Y-43616723D02*
X130464286Y-43426247D01*
X130464286Y-43426247D02*
X130464286Y-43283390D01*
X130464286Y-43283390D02*
X130511905Y-43092914D01*
X130511905Y-43092914D02*
X130559524Y-42997676D01*
X130559524Y-42997676D02*
X130654762Y-42902438D01*
X130654762Y-42902438D02*
X130797619Y-42854819D01*
X130797619Y-42854819D02*
X130892857Y-42854819D01*
X130892857Y-42854819D02*
X131035714Y-42902438D01*
X131035714Y-42902438D02*
X131083333Y-42950057D01*
X132035714Y-43854819D02*
X131464286Y-43854819D01*
X131750000Y-43854819D02*
X131750000Y-42854819D01*
X131750000Y-42854819D02*
X131654762Y-42997676D01*
X131654762Y-42997676D02*
X131559524Y-43092914D01*
X131559524Y-43092914D02*
X131464286Y-43140533D01*
D12*
%TO.C,U1*%
X140025000Y-43345000D02*
X138075000Y-43345000D01*
X140025000Y-43345000D02*
X141975000Y-43345000D01*
X140025000Y-48465000D02*
X138075000Y-48465000D01*
X140025000Y-48465000D02*
X141975000Y-48465000D01*
X137325000Y-43440000D02*
X137085000Y-43110000D01*
X137565000Y-43110000D01*
X137325000Y-43440000D01*
G36*
X137325000Y-43440000D02*
G01*
X137085000Y-43110000D01*
X137565000Y-43110000D01*
X137325000Y-43440000D01*
G37*
D13*
%TO.C,SW1*%
X136859700Y-38966500D02*
G75*
G02*
X136097700Y-38966500I-381000J0D01*
G01*
X136097700Y-38966500D02*
G75*
G02*
X136859700Y-38966500I381000J0D01*
G01*
D14*
X138256700Y-41870300D02*
X142904900Y-41870300D01*
X142904900Y-40428159D02*
X142904900Y-39654841D01*
X142904900Y-38212700D02*
X138256700Y-38212700D01*
X138256700Y-39654841D02*
X138256700Y-40428159D01*
D12*
%TO.C,R1*%
X139772936Y-52590000D02*
X141227064Y-52590000D01*
X139772936Y-54410000D02*
X141227064Y-54410000D01*
%TO.C,C2*%
X127538748Y-51590000D02*
X128961252Y-51590000D01*
X127538748Y-53410000D02*
X128961252Y-53410000D01*
%TO.C,C1*%
X130538748Y-44340000D02*
X131961252Y-44340000D01*
X130538748Y-46160000D02*
X131961252Y-46160000D01*
%TD*%
M02*
